<?xml version="1.0" encoding="UTF-8"?>
<!DOCTYPE svg PUBLIC "-//W3C//DTD SVG 1.1//EN" "http://www.w3.org/Graphics/SVG/1.1/DTD/svg11.dtd">
<!-- Creator: CorelDRAW X7 -->
<svg xmlns="http://www.w3.org/2000/svg" xml:space="preserve" width="800px" height="493px" version="1.1" style="shape-rendering:geometricPrecision; text-rendering:geometricPrecision; image-rendering:optimizeQuality; fill-rule:evenodd; clip-rule:evenodd"
viewBox="0 0 2012 1240"
 xmlns:xlink="http://www.w3.org/1999/xlink">
 <defs>
  <style type="text/css">
   <![CDATA[
    .fil0 {fill:#040404;fill-opacity:0.349020}
   ]]>
  </style>
 </defs>
 <g id="Layer_x0020_1">
  <metadata id="CorelCorpID_0Corel-Layer"/>
  <path class="fil0" d="M386 381c-3,-2 -3,-3 -4,-6 21,-2 38,-17 47,-29 12,-16 15,-36 19,-59 11,-4 21,-13 24,-24 1,-3 3,-11 0,-14 -4,-2 -4,5 -14,6 -8,1 -11,2 -14,7 -3,-2 -2,-3 -5,-6 -5,-5 -11,-5 -15,-8 -4,-3 -1,-4 -6,-5 -6,2 -7,14 -4,21 4,9 10,8 14,15 -1,15 -20,14 -33,14 -28,0 -59,-4 -86,-9 -12,-2 -29,-8 -41,-3 -24,12 6,55 14,63 9,9 15,15 27,21 8,4 29,12 38,9 0,-8 -1,-4 -14,-7 -6,-1 -11,-2 -16,-5 -19,-8 -34,-22 -44,-39 -5,-8 -11,-20 -8,-32 8,0 19,15 41,22 23,7 44,0 45,18 -7,-1 -17,-7 -20,-8 2,4 12,9 16,11 5,2 5,0 4,6 -10,1 -25,-7 -33,-12 -6,-4 -5,-5 -9,-6 1,4 5,6 8,8 3,2 6,4 10,6 11,6 20,7 23,9l-1 5c-12,-1 -26,-6 -34,-11 -5,-4 -10,-7 -13,-10l-12 -12c4,14 31,31 49,35 3,1 7,1 9,3l0 6c-22,0 -50,-19 -63,-36 -8,-10 -9,-14 -13,-21 -1,2 -1,0 0,3 1,7 20,30 28,37 13,10 27,16 47,21 2,8 0,22 13,28 8,5 27,4 33,-2 0,-5 -5,-6 -7,-10zm-21 -71c3,0 5,2 5,5 0,3 -2,6 -5,6 -3,0 -5,-3 -5,-6 0,-3 2,-5 5,-5zm-28 -77c-1,0 -10,2 -12,7 -2,4 2,8 4,10 2,1 4,1 4,1 0,0 -6,-4 -5,-8 1,-4 9,-10 9,-10zm44 50c0,0 9,1 18,-4 9,-4 11,-11 11,-11 0,0 2,9 -9,14 -11,4 -20,1 -20,1zm-97 79l-26 0c-15,0 -27,-12 -27,-27l0 0c0,-14 10,-25 23,-27l0 0c1,0 1,0 1,0 3,0 6,3 6,6 0,3 -2,5 -5,5l0 0c-8,1 -14,8 -14,16l0 0c0,8 7,15 16,15l26 0c4,0 6,3 6,6 0,3 -2,6 -6,6l0 0zm128 14l-22 0c-2,0 -3,2 -3,3l0 0c0,1 1,3 3,3l22 0c1,0 3,-2 3,-3l0 0c0,-1 -2,-3 -3,-3zm25 10l-39 0c-2,0 -4,1 -4,3l0 0c0,2 2,4 4,4l39 0c2,0 4,-2 4,-4l0 0c0,-2 -2,-3 -4,-3zm-116 -10l24 0c1,0 2,2 2,3l0 0c0,1 -1,3 -2,3l-24 0c-2,0 -3,-2 -3,-3l0 0c0,-1 1,-3 3,-3zm-29 10l55 0c2,0 3,1 3,3l0 0c0,2 -1,4 -3,4l-55 0c-2,0 -4,-2 -4,-4l0 0c0,-2 2,-3 4,-3zm93 -159c-11,10 -36,2 -50,11 -6,3 -5,9 0,12 7,4 23,6 32,7 6,0 12,1 18,2 5,1 12,2 15,6 -10,18 -84,6 -92,10 5,8 74,9 92,-1 5,-3 10,-10 2,-15 -5,-4 -15,-5 -22,-6 -6,-1 -39,-3 -43,-10 18,-7 43,-3 50,-12 5,-6 0,-13 -5,-14 1,6 4,4 3,10zm28 112c1,0 2,1 2,2 0,1 -1,2 -2,2 -2,0 -3,-1 -3,-2 0,-1 1,-2 3,-2zm-21 17c2,0 3,1 3,3 0,2 -1,3 -3,3 -1,0 -3,-1 -3,-3 0,-2 2,-3 3,-3zm2 -3c0,0 1,0 1,1 0,1 -1,2 -1,2 -1,0 -2,-1 -2,-2 0,-1 1,-1 2,-1zm-4 -6c0,0 1,0 1,1 0,1 -1,2 -1,2 -1,0 -2,-1 -2,-2 0,-1 1,-1 2,-1zm9 -4c3,0 5,2 5,5 0,2 -2,4 -5,4 -2,0 -4,-2 -4,-4 0,-3 2,-5 4,-5zm11 6c2,0 3,1 3,3 0,1 -1,3 -3,3 -1,0 -3,-2 -3,-3 0,-2 2,-3 3,-3zm-1 -7c0,0 1,1 1,1 0,1 -1,2 -1,2 -1,0 -2,-1 -2,-2 0,0 1,-1 2,-1zm-36 -11c1,2 4,5 6,7 0,0 57,-1 56,-18 -20,-2 -40,11 -62,11zm11 57c-12,-14 -7,-17 -7,-35 0,-17 -7,-19 -20,-24 0,16 -12,51 6,59 5,3 16,4 21,0zm-112 -102c2,5 28,20 40,23 17,4 42,0 45,19 10,-3 5,6 40,-5 13,-3 25,-8 40,-7 4,-15 4,-31 9,-34 11,-6 18,-9 21,-23 -5,1 -14,1 -17,2 -8,3 -3,8 -5,13 -6,-4 2,-13 -26,-22 -1,13 3,13 10,19 8,8 5,16 0,20 -15,14 -84,5 -106,2 -13,-3 -38,-10 -51,-7z"/>
  <path class="fil0" d="M1202 381c-2,-2 -2,-3 -3,-6 21,-2 38,-17 47,-29 11,-16 15,-36 19,-59 11,-4 21,-13 24,-24 1,-3 2,-11 -1,-14 -3,-2 -4,5 -13,6 -8,1 -12,2 -14,7 -3,-2 -2,-3 -5,-6 -5,-5 -11,-5 -15,-8 -5,-3 -2,-4 -7,-5 -5,2 -6,14 -3,21 4,9 9,8 14,15 -1,15 -21,14 -34,14 -27,0 -59,-4 -86,-9 -12,-2 -29,-8 -40,-3 -25,12 5,55 13,63 10,9 16,15 28,21 8,4 28,12 38,9 0,-8 -2,-4 -15,-7 -6,-1 -10,-2 -16,-5 -19,-8 -33,-22 -43,-39 -5,-8 -11,-20 -8,-32 8,0 19,15 41,22 22,7 44,0 45,18 -7,-1 -17,-7 -20,-8 2,4 12,9 16,11 5,2 4,0 3,6 -9,1 -25,-7 -32,-12 -6,-4 -6,-5 -9,-6 1,4 5,6 8,8 3,2 6,4 9,6 11,6 20,7 23,9l-1 5c-11,-1 -25,-6 -34,-11 -5,-4 -10,-7 -13,-10l-12 -12c5,14 32,31 49,35 4,1 7,1 10,3l-1 6c-22,0 -49,-19 -63,-36 -8,-10 -8,-14 -12,-21 -1,2 -1,0 -1,3 1,7 20,30 28,37 13,10 27,16 48,21 1,8 0,22 12,28 8,5 28,4 33,-2 0,-5 -5,-6 -7,-10zm-21 -71c3,0 6,2 6,5 0,3 -3,6 -6,6 -3,0 -5,-3 -5,-6 0,-3 2,-5 5,-5zm-28 -77c0,0 -9,2 -11,7 -2,4 1,8 3,10 2,1 4,1 4,1 0,0 -6,-4 -5,-8 1,-4 9,-10 9,-10zm44 50c0,0 9,1 19,-4 9,-4 10,-11 10,-11 0,0 3,9 -8,14 -11,4 -21,1 -21,1zm-96 79l-27 0c-15,0 -27,-12 -27,-27l0 0c0,-14 10,-25 24,-27l0 0c0,0 0,0 1,0 3,0 5,3 5,6 0,3 -2,5 -4,5l0 0c-8,1 -14,8 -14,16l0 0c0,8 7,15 15,15l27 0c3,0 6,3 6,6 0,3 -3,6 -6,6l0 0zm128 14l-23 0c-1,0 -2,2 -2,3l0 0c0,1 1,3 2,3l23 0c1,0 2,-2 2,-3l0 0c0,-1 -1,-3 -2,-3zm25 10l-39 0c-2,0 -4,1 -4,3l0 0c0,2 2,4 4,4l39 0c2,0 3,-2 3,-4l0 0c0,-2 -1,-3 -3,-3zm-117 -10l24 0c2,0 3,2 3,3l0 0c0,1 -1,3 -3,3l-24 0c-1,0 -2,-2 -2,-3l0 0c0,-1 1,-3 2,-3zm-28 10l54 0c2,0 4,1 4,3l0 0c0,2 -2,4 -4,4l-54 0c-2,0 -4,-2 -4,-4l0 0c0,-2 2,-3 4,-3zm93 -159c-12,10 -36,2 -50,11 -6,3 -6,9 -1,12 7,4 24,6 33,7 6,0 11,1 17,2 6,1 13,2 16,6 -10,18 -85,6 -92,10 5,8 73,9 91,-1 6,-3 10,-10 2,-15 -5,-4 -15,-5 -21,-6 -7,-1 -39,-3 -44,-10 18,-7 44,-3 51,-12 4,-6 0,-13 -5,-14 1,6 3,4 3,10zm27 112c1,0 2,1 2,2 0,1 -1,2 -2,2 -1,0 -2,-1 -2,-2 0,-1 1,-2 2,-2zm-20 17c1,0 3,1 3,3 0,2 -2,3 -3,3 -2,0 -3,-1 -3,-3 0,-2 1,-3 3,-3zm1 -3c1,0 2,0 2,1 0,1 -1,2 -2,2 -1,0 -1,-1 -1,-2 0,-1 0,-1 1,-1zm-4 -6c1,0 2,0 2,1 0,1 -1,2 -2,2 -1,0 -1,-1 -1,-2 0,-1 0,-1 1,-1zm10 -4c3,0 5,2 5,5 0,2 -2,4 -5,4 -3,0 -5,-2 -5,-4 0,-3 2,-5 5,-5zm11 6c1,0 3,1 3,3 0,1 -2,3 -3,3 -2,0 -3,-2 -3,-3 0,-2 1,-3 3,-3zm-2 -7c1,0 2,1 2,1 0,1 -1,2 -2,2 -1,0 -1,-1 -1,-2 0,0 0,-1 1,-1zm-35 -11c1,2 3,5 5,7 1,0 58,-1 56,-18 -20,-2 -40,11 -61,11zm10 57c-11,-14 -7,-17 -6,-35 0,-17 -8,-19 -20,-24 0,16 -12,51 5,59 5,3 17,4 21,0zm-111 -102c1,5 28,20 39,23 17,4 43,0 45,19 11,-3 6,6 41,-5 12,-3 25,-8 39,-7 4,-15 4,-31 9,-34 12,-6 18,-9 22,-23 -6,1 -14,1 -18,2 -7,3 -3,8 -5,13 -5,-4 3,-13 -26,-22 -1,13 4,13 10,19 8,8 5,16 1,20 -16,14 -84,5 -106,2 -14,-3 -38,-10 -51,-7z"/>
  <path class="fil0" d="M827 988c-3,-2 -3,-3 -4,-7 21,-1 38,-17 47,-29 12,-16 15,-36 19,-58 11,-5 21,-13 24,-24 1,-4 3,-12 0,-14 -4,-2 -4,4 -14,5 -8,1 -11,2 -14,8 -3,-3 -2,-3 -5,-6 -5,-5 -11,-6 -15,-9 -4,-3 -1,-4 -6,-5 -6,3 -6,15 -4,21 4,9 10,8 14,16 -1,14 -20,13 -33,13 -28,0 -59,-3 -86,-8 -12,-3 -29,-9 -41,-3 -24,12 6,54 14,63 9,9 15,15 27,20 8,4 29,13 38,9 0,-8 -1,-3 -14,-6 -6,-1 -11,-3 -16,-5 -19,-9 -34,-23 -44,-40 -5,-8 -11,-20 -8,-31 8,-1 19,14 41,21 23,8 44,0 45,19 -7,-2 -17,-8 -20,-8 2,4 12,8 16,10 5,2 5,0 4,6 -9,2 -25,-6 -33,-12 -6,-3 -5,-5 -9,-5 1,3 5,5 8,7 3,3 6,5 10,7 11,6 20,6 23,9l-1 5c-12,-1 -26,-7 -34,-12 -5,-3 -10,-6 -13,-10l-12 -12c4,15 31,31 49,36 3,1 7,1 9,3l0 5c-22,0 -50,-19 -63,-36 -8,-10 -8,-14 -13,-20 -1,1 -1,0 0,2 1,8 20,31 28,37 13,11 27,16 47,21 2,9 0,22 13,29 8,4 27,3 33,-2 0,-5 -5,-7 -7,-10zm-21 -72c3,0 5,3 5,6 0,3 -2,5 -5,5 -3,0 -5,-2 -5,-5 0,-3 2,-6 5,-6zm-28 -77c-1,0 -10,3 -12,7 -2,5 2,9 4,10 2,1 4,1 4,1 0,0 -6,-4 -5,-8 1,-4 9,-10 9,-10zm44 50c0,0 9,1 18,-3 9,-4 11,-12 11,-12 0,0 2,9 -9,14 -11,5 -20,1 -20,1zm-97 79l-26 0c-15,0 -27,-12 -27,-27l0 0c0,-14 10,-25 23,-27l0 0c1,0 1,0 1,0 3,0 6,3 6,6 0,3 -2,5 -5,6l0 0c-8,1 -14,7 -14,15l0 0c0,9 7,16 16,16l26 0c4,0 6,2 6,6 0,3 -2,5 -6,5l0 0zm128 15l-22 0c-2,0 -3,1 -3,2l0 0c0,2 1,3 3,3l22 0c1,0 3,-1 3,-3l0 0c0,-1 -2,-2 -3,-2zm25 9l-39 0c-2,0 -4,2 -4,4l0 0c0,2 2,3 4,3l39 0c2,0 4,-1 4,-3l0 0c0,-2 -2,-4 -4,-4zm-116 -9l24 0c1,0 2,1 2,2l0 0c0,2 -1,3 -2,3l-24 0c-2,0 -3,-1 -3,-3l0 0c0,-1 1,-2 3,-2zm-29 9l55 0c2,0 3,2 3,4l0 0c0,2 -1,3 -3,3l-55 0c-2,0 -4,-1 -4,-3l0 0c0,-2 2,-4 4,-4zm93 -158c-11,9 -36,1 -50,10 -6,3 -5,9 0,12 7,4 23,6 32,7 6,1 12,2 18,3 5,1 12,2 15,6 -10,17 -84,6 -92,10 5,7 74,9 92,-2 5,-3 10,-10 2,-15 -5,-3 -15,-5 -22,-6 -6,-1 -39,-3 -43,-10 18,-6 43,-3 50,-12 5,-6 0,-12 -5,-13 1,5 4,3 3,10zm28 112c1,0 2,1 2,2 0,1 -1,2 -2,2 -2,0 -3,-1 -3,-2 0,-1 1,-2 3,-2zm-21 16c2,0 3,2 3,3 0,2 -1,3 -3,3 -1,0 -3,-1 -3,-3 0,-1 2,-3 3,-3zm2 -3c0,0 1,1 1,1 0,1 -1,2 -1,2 -1,0 -2,-1 -2,-2 0,0 1,-1 2,-1zm-4 -6c0,0 1,1 1,1 0,1 -1,2 -1,2 -1,0 -2,-1 -2,-2 0,0 1,-1 2,-1zm9 -4c3,0 5,2 5,5 0,3 -2,5 -5,5 -2,0 -4,-2 -4,-5 0,-3 2,-5 4,-5zm11 6c2,0 3,1 3,3 0,2 -1,3 -3,3 -1,0 -3,-1 -3,-3 0,-2 2,-3 3,-3zm-1 -7c0,0 1,1 1,2 0,1 -1,1 -1,1 -1,0 -2,0 -2,-1 0,-1 1,-2 2,-2zm-36 -10c1,2 4,5 6,7 0,0 57,-1 56,-19 -20,-1 -40,12 -62,12zm11 57c-12,-14 -7,-17 -7,-35 0,-18 -7,-20 -20,-25 0,16 -12,51 6,60 5,2 16,3 21,0zm-112 -103c2,5 28,20 40,23 17,4 42,0 45,19 10,-2 5,6 40,-4 13,-4 25,-9 40,-8 4,-14 4,-31 9,-33 11,-6 18,-10 21,-24 -5,2 -14,1 -17,3 -8,2 -3,7 -5,12 -6,-4 2,-13 -26,-22 -1,13 3,14 10,20 8,7 5,15 0,20 -15,14 -84,4 -106,1 -13,-2 -38,-9 -51,-7z"/>
  <path class="fil0" d="M1643 988c-2,-2 -2,-3 -3,-7 21,-1 38,-17 47,-29 11,-16 15,-36 19,-58 11,-5 21,-13 24,-24 1,-4 2,-12 -1,-14 -3,-2 -4,4 -13,5 -8,1 -12,2 -14,8 -3,-3 -2,-3 -5,-6 -5,-5 -11,-6 -15,-9 -5,-3 -2,-4 -7,-5 -5,3 -6,15 -3,21 4,9 9,8 14,16 -1,14 -21,13 -34,13 -27,0 -59,-3 -86,-8 -12,-3 -29,-9 -40,-3 -25,12 5,54 13,63 10,9 16,15 28,20 8,4 28,13 38,9 0,-8 -2,-3 -15,-6 -6,-1 -10,-3 -16,-5 -19,-9 -33,-23 -43,-40 -5,-8 -11,-20 -8,-31 8,-1 19,14 41,21 22,8 44,0 45,19 -7,-2 -17,-8 -20,-8 2,4 12,8 16,10 5,2 4,0 3,6 -9,2 -25,-6 -32,-12 -6,-3 -6,-5 -9,-5 1,3 5,5 8,7 3,3 6,5 9,7 11,6 20,6 23,9l-1 5c-11,-1 -25,-7 -34,-12 -5,-3 -10,-6 -13,-10l-12 -12c5,15 32,31 49,36 4,1 7,1 10,3l-1 5c-22,0 -49,-19 -63,-36 -8,-10 -8,-14 -12,-20 -1,1 -1,0 -1,2 1,8 20,31 28,37 13,11 27,16 48,21 1,9 0,22 12,29 8,4 28,3 33,-2 0,-5 -5,-7 -7,-10zm-21 -72c3,0 6,3 6,6 0,3 -3,5 -6,5 -3,0 -5,-2 -5,-5 0,-3 2,-6 5,-6zm-28 -77c0,0 -9,3 -11,7 -2,5 1,9 3,10 2,1 4,1 4,1 0,0 -6,-4 -5,-8 1,-4 9,-10 9,-10zm44 50c0,0 9,1 19,-3 9,-4 10,-12 10,-12 0,0 3,9 -8,14 -11,5 -21,1 -21,1zm-96 79l-27 0c-15,0 -27,-12 -27,-27l0 0c0,-14 10,-25 24,-27l0 0c0,0 0,0 1,0 3,0 5,3 5,6 0,3 -2,5 -4,6l0 0c-8,1 -14,7 -14,15l0 0c0,9 7,16 15,16l27 0c3,0 6,2 6,6 0,3 -3,5 -6,5l0 0zm128 15l-23 0c-1,0 -2,1 -2,2l0 0c0,2 1,3 2,3l23 0c1,0 2,-1 2,-3l0 0c0,-1 -1,-2 -2,-2zm25 9l-39 0c-2,0 -4,2 -4,4l0 0c0,2 2,3 4,3l39 0c2,0 3,-1 3,-3l0 0c0,-2 -1,-4 -3,-4zm-117 -9l24 0c2,0 3,1 3,2l0 0c0,2 -1,3 -3,3l-24 0c-1,0 -2,-1 -2,-3l0 0c0,-1 1,-2 2,-2zm-28 9l54 0c2,0 4,2 4,4l0 0c0,2 -2,3 -4,3l-54 0c-2,0 -4,-1 -4,-3l0 0c0,-2 2,-4 4,-4zm93 -158c-12,9 -36,1 -50,10 -6,3 -6,9 -1,12 7,4 24,6 33,7 6,1 11,2 17,3 6,1 13,2 16,6 -10,17 -85,6 -92,10 5,7 73,9 91,-2 6,-3 10,-10 2,-15 -5,-3 -14,-5 -21,-6 -7,-1 -39,-3 -44,-10 18,-6 44,-3 51,-12 4,-6 0,-12 -5,-13 1,5 3,3 3,10zm27 112c1,0 2,1 2,2 0,1 -1,2 -2,2 -1,0 -2,-1 -2,-2 0,-1 1,-2 2,-2zm-20 16c1,0 3,2 3,3 0,2 -2,3 -3,3 -2,0 -3,-1 -3,-3 0,-1 1,-3 3,-3zm1 -3c1,0 2,1 2,1 0,1 -1,2 -2,2 -1,0 -1,-1 -1,-2 0,0 0,-1 1,-1zm-4 -6c1,0 2,1 2,1 0,1 -1,2 -2,2 -1,0 -1,-1 -1,-2 0,0 0,-1 1,-1zm10 -4c3,0 5,2 5,5 0,3 -2,5 -5,5 -3,0 -5,-2 -5,-5 0,-3 2,-5 5,-5zm11 6c1,0 3,1 3,3 0,2 -2,3 -3,3 -2,0 -3,-1 -3,-3 0,-2 1,-3 3,-3zm-2 -7c1,0 2,1 2,2 0,1 -1,1 -2,1 -1,0 -1,0 -1,-1 0,-1 0,-2 1,-2zm-35 -10c1,2 3,5 5,7 1,0 58,-1 56,-19 -20,-1 -40,12 -61,12zm10 57c-11,-14 -7,-17 -6,-35 0,-18 -8,-20 -20,-25 0,16 -12,51 5,60 5,2 17,3 21,0zm-111 -103c1,5 28,20 39,23 17,4 43,0 45,19 11,-2 6,6 41,-4 12,-4 25,-9 39,-8 4,-14 4,-31 9,-33 12,-6 18,-10 22,-24 -6,2 -14,1 -18,3 -7,2 -3,7 -5,12 -5,-4 3,-13 -26,-22 -1,13 4,14 10,20 8,7 6,15 1,20 -16,14 -84,4 -106,1 -14,-2 -38,-9 -51,-7z"/>
 </g>
</svg>
